# xmcd
#
# Track frame offsets: 
#        150
#        13177
#        26994
#        42145
#        55064
#        73097
#        86998
#        105235
#        115504
#        135786
#
# Disc length: 2009 seconds
#
# Revision: 0
# Processed by: cddbd v1.5.2PL0 Copyright (c) Steve Scherf et al.
# Submitted via: ExactAudioCopyFreeDBPlugin 1.0
#
DISCID=7a07d70a
DTITLE=Iron Mike Norton - Dirty South
DYEAR=2011
DGENRE=Blues
TTITLE0=Gotcha Name Tattoed On My Drinkin Hand
TTITLE1=Po Black Maddie
TTITLE2=Hard Time
TTITLE3=Betty
TTITLE4=Fallin For the Devil
TTITLE5=Black Water
TTITLE6=Born Under A Bad Sign
TTITLE7=If I'm Lyin
TTITLE8=Drinkin With Jesus
TTITLE9=Boom
EXTD=
EXTT0=
EXTT1=
EXTT2=
EXTT3=
EXTT4=
EXTT5=
EXTT6=
EXTT7=
EXTT8=
EXTT9=
PLAYORDER=
